<svg xmlns="http://www.w3.org/2000/svg"
 xmlns:xlink="http://www.w3.org/1999/xlink"
 width="32px" height="30px"  viewBox="0 0 32 30">
<path fill-rule="evenodd"  fill="#404040"
 d="M4.755768,11.64093 C5.9437256,11.871948 13.83725,13.200745 19.384491,9.071228 C19.910522,8.67981 20.56131,8.520508 21.212067,8.616821 C21.862915,8.715515 22.43097,9.0625 22.816254,9.590942 C23.470795,10.494995 26.425842,11.319885 28.216461,11.594055 C28.216461,11.594055 29.06488,11.766846 29.06488,11.766846 C27.63855,5.8777466 22.460571,1.8320923 16.181091,1.8320923 C10.185669,1.8320923 5.1929626,5.517029 3.5110474,10.974243 C3.5110474,10.974243 4.755768,11.64093 4.755768,11.64093 ZM19.885803,17.885437 C19.204163,17.885437 18.650879,17.332336 18.650879,16.650635 C18.650879,15.968872 19.204163,15.4157715 19.885803,15.4157715 C20.567474,15.4157715 21.120758,15.968872 21.120758,16.650635 C21.120758,17.332336 20.567474,17.885437 19.885803,17.885437 C19.885803,17.885437 19.885803,17.885437 19.885803,17.885437 ZM16.181091,22.825317 C13.564392,22.825317 11.241455,24.162537 11.241455,22.825317 C11.241455,21.487793 13.564392,19.120544 16.181091,19.120544 C18.797913,19.120544 21.120758,21.487793 21.120758,22.825317 C21.120758,24.162537 18.797913,22.825317 16.181091,22.825317 C16.181091,22.825317 16.181091,22.825317 16.181091,22.825317 ZM12.47641,15.4157715 C13.158051,15.4157715 13.711334,15.968872 13.711334,16.650635 C13.711334,17.332336 13.158051,17.885437 12.47641,17.885437 C11.794739,17.885437 11.241455,17.332336 11.241455,16.650635 C11.241455,15.968872 11.794739,15.4157715 12.47641,15.4157715 C12.47641,15.4157715 12.47641,15.4157715 12.47641,15.4157715 ZM27.784302,14.025085 C26.933472,13.898071 22.311218,13.102783 20.816895,11.041504 C13.950867,16.194885 4.4556885,14.109253 4.0580444,14.018982 C3.9493713,13.994385 3.8457031,13.954712 3.7493896,13.902832 C3.7493896,13.902832 2.1513977,13.047241 2.1513977,13.047241 C1.6574402,13.736084 1.3622742,14.573425 1.3622742,15.4157715 C1.3622742,16.809937 2.1229858,18.073364 3.313446,18.744995 C4.96698,24.723328 10.285645,28.999756 16.181091,28.999756 C22.076569,28.999756 27.395325,24.723328 29.048828,18.744995 C30.239227,18.073364 30.999939,16.809937 30.999939,15.4157715 C30.999939,15.163879 30.965363,14.912964 30.914703,14.664734 C30.914703,14.664734 27.784302,14.025085 27.784302,14.025085 Z"/>
</svg>