<svg xmlns="http://www.w3.org/2000/svg"
 xmlns:xlink="http://www.w3.org/1999/xlink"
 width="34px" height="21px"  viewBox="0 0 34 21">
<path fill-rule="evenodd"  fill="#404040"
 d="M32.99829,16.713745 C32.99829,16.713745 32.99829,4.2852783 32.99829,4.2852783 C32.99829,3.0257568 31.968262,1.9984131 30.705566,1.9984131 C30.705566,1.9984131 6.914856,1.9984131 6.914856,1.9984131 C5.6522217,1.9984131 4.6221313,3.0257568 4.6221313,4.2852783 C4.6221313,4.2852783 4.6221313,7.500122 4.6221313,7.500122 C4.6221313,7.500122 3.0604858,7.500122 3.0604858,7.500122 C2.4624023,7.500122 1.9971924,7.9639893 1.9971924,8.560547 C1.9971924,8.560547 1.9971924,12.405029 1.9971924,12.405029 C1.9971924,13.001831 2.4624023,13.465698 3.0604858,13.465698 C3.0604858,13.465698 4.6221313,13.465698 4.6221313,13.465698 C4.6221313,13.465698 4.6221313,16.713745 4.6221313,16.713745 C4.6221313,17.973145 5.6522217,19.000488 6.914856,19.000488 C6.914856,19.000488 30.705566,19.000488 30.705566,19.000488 C31.968262,18.967407 32.99829,17.973145 32.99829,16.713745 ZM7.7787476,15.852051 C7.7787476,15.852051 7.7787476,5.1468506 7.7787476,5.1468506 C7.7787476,5.1468506 24.757874,5.1468506 24.757874,5.1468506 C24.757874,5.1468506 24.757874,15.852051 24.757874,15.852051 C24.757874,15.852051 7.7787476,15.852051 7.7787476,15.852051 Z"/>
</svg>