<svg xmlns="http://www.w3.org/2000/svg"
 xmlns:xlink="http://www.w3.org/1999/xlink"
 width="69px" height="52px"  viewBox="0 0 69 52">
<path fill-rule="evenodd"  fill="#404040"
 d="M7.784973,50.43091 C7.784973,50.43091 3.5374756,50.43091 3.5374756,50.43091 C2.6881714,50.43091 1.9996338,49.739502 1.9996338,48.88623 C1.9996338,48.88623 1.9996338,48.88623 1.9996338,48.88623 C1.9996338,48.88623 1.9996338,25.727417 1.9996338,25.727417 C1.9991455,25.166138 2.2633057,24.63794 2.711914,24.3031 C2.711914,24.3031 13.676819,16.151001 13.676819,16.151001 C15.578064,14.738892 17.935486,14.09021 20.287659,14.332153 C20.287659,14.332153 20.287659,28.09497 20.287659,28.09497 C20.270935,28.975708 20.571167,29.832886 21.133179,30.509033 C22.098938,31.62793 23.660645,32.01599 25.034424,31.47876 C25.034424,31.47876 25.081055,31.47876 25.081055,31.47876 C25.081055,31.47876 25.081055,31.47876 25.081055,31.47876 C25.081055,31.47876 39.947083,25.620483 39.947083,25.620483 C42.14215,24.7583 44.61725,25.847046 45.475525,28.05188 C45.493225,28.097046 45.51007,28.142578 45.526123,28.188354 C46.168213,30.12024 45.39801,32.241455 43.66864,33.304443 C43.66864,33.304443 35.879395,38.279785 35.879395,38.279785 C35.879395,38.279785 44.867004,38.279785 44.867004,38.279785 C45.661194,38.279785 46.304993,38.926636 46.304993,39.724487 C46.304993,39.724487 46.304993,39.724487 46.304993,39.724487 C46.304993,39.724487 46.304993,45.32837 46.304993,45.32837 C46.14087,47.423584 44.317078,48.988403 42.231506,48.823486 C41.156006,48.73828 40.167786,48.196777 39.514404,47.334595 C38.822144,49.321777 36.657227,50.368774 34.679077,49.67334 C33.589294,49.29004 32.73236,48.429443 32.351013,47.334595 C31.075378,49.005005 28.693176,49.32019 27.030457,48.03882 C26.336487,47.504272 25.84784,46.74524 25.646912,45.890137 C21.277405,48.847046 16.129272,50.4281 10.860718,50.43091 C10.860718,50.43091 7.784973,50.43091 7.784973,50.43091 ZM41.49829,21.240112 C46.072266,21.220825 49.795715,24.92981 49.815063,29.524292 C49.822205,31.192383 49.329834,32.823853 48.4021,34.207153 C48.4021,34.207153 52.51642,34.207153 52.51642,34.207153 C54.722534,34.207153 56.510864,32.410767 56.510864,30.194702 C56.510864,30.194702 56.510864,23.286621 56.510864,23.286621 C56.510864,22.632935 57.03839,22.102905 57.68927,22.102905 C57.68927,22.102905 57.94226,22.102905 57.94226,22.102905 C58.210266,22.106567 58.469727,22.198364 58.681213,22.36377 C61.01837,24.157837 64.36084,23.708984 66.14691,21.361328 C66.61206,20.749756 66.94043,20.044678 67.10962,19.29419 C67.77875,16.39795 65.98401,13.505127 63.10089,12.832886 C62.712463,12.742432 62.31543,12.695801 61.916748,12.693726 C60.766724,12.696655 59.64917,13.076904 58.734497,13.776855 C58.522766,13.942017 58.263428,14.033325 57.995483,14.037842 C57.995483,14.037842 57.742554,14.037842 57.742554,14.037842 C57.091797,14.037842 56.56421,13.50769 56.56421,12.854126 C56.56421,12.854126 56.56421,12.854126 56.56421,12.854126 C56.56421,12.854126 56.56421,5.9659424 56.56421,5.9659424 C56.56421,3.75 54.775696,1.9536133 52.569702,1.9536133 C52.569702,1.9536133 45.65924,1.9536133 45.65924,1.9536133 C45.008423,1.9536133 44.480835,2.4833984 44.480835,3.137085 C44.480835,3.137085 44.480835,3.3914795 44.480835,3.3914795 C44.491333,3.654541 44.584595,3.9072266 44.747192,4.1136475 C45.443726,5.032715 45.822388,6.1551514 45.825623,7.3103027 C45.976685,10.261108 43.717834,12.776001 40.78015,12.927856 C38.14679,13.063965 35.81073,11.243652 35.286926,8.647827 C34.88324,7.0769043 35.216797,5.4067383 36.19232,4.1136475 C36.356995,3.901123 36.448242,3.640503 36.451965,3.371338 C36.451965,3.371338 36.451965,3.1173096 36.451965,3.1173096 C36.452087,2.468628 35.932434,1.940918 35.286926,1.9334717 C35.286926,1.9334717 28.423035,1.9334717 28.423035,1.9334717 C26.217041,1.9334717 24.428589,3.7299805 24.428589,5.946045 C24.428589,5.946045 24.428589,27.345703 24.428589,27.345703 C24.428589,27.345703 38.489197,21.815186 38.489197,21.815186 C39.447998,21.4375 40.468445,21.242554 41.49829,21.240112 Z"/>
</svg>