<svg xmlns="http://www.w3.org/2000/svg"
 xmlns:xlink="http://www.w3.org/1999/xlink"
 width="32px" height="30px"  viewBox="0 0 32 30">
<path fill-rule="evenodd"  fill="#404040"
 d="M6.7678223,9.409973 C6.7678223,9.409973 6.6950073,9.409973 6.865967,9.409973 C4.2281494,9.409973 1.9990234,11.4175415 1.9990234,14.060791 C1.9990234,16.70514 4.2281494,18.847412 6.865967,18.847412 C6.6604004,18.875488 6.7678223,18.847412 6.7678223,18.847412 C7.340149,18.847412 7.803833,18.382446 7.803833,17.808472 C7.803833,17.808472 7.803833,10.448669 7.803833,10.448669 C7.803833,9.874939 7.340149,9.409973 6.7678223,9.409973 ZM30.239197,2.342102 C30.239197,2.342102 15.745239,20.80371 15.745239,20.80371 C15.745239,20.80371 15.745239,28.23944 15.745239,28.23944 C15.745239,28.659119 16.08435,28.999207 16.503601,28.999207 C16.503601,28.999207 20.058899,28.999207 20.058899,28.999207 C20.477417,28.999207 20.817322,28.659119 20.817322,28.23944 C20.817322,28.23944 20.817322,21.47882 20.817322,21.47882 C23.103394,22.442383 25.657715,23.891052 28.80597,26.077026 C28.80597,26.077026 30.937012,26.97815 30.937012,23.942139 C30.937012,22.416992 30.937012,18.911194 30.937012,15.798462 C30.937012,15.3396 30.937012,14.888367 30.937012,14.454102 C30.937012,14.454102 30.937012,13.334656 30.937012,13.334656 C30.937012,12.246948 30.937012,11.05896 30.937012,9.888428 C30.937012,7.4205933 30.937012,5.5543213 30.937012,4.366638 C30.937012,3.2042847 30.62439,2.6218262 30.239197,2.342102 ZM21.617188,10.039001 C21.617188,10.039001 27.091858,3.0656128 27.091858,3.0656128 C27.439209,2.6228638 27.362915,1.9819336 26.921265,1.633606 C26.480042,1.2856445 25.8396,1.3621216 25.492188,1.8045654 C25.492188,1.8045654 21.917847,6.3573 21.917847,6.3573 C16.100647,9.192139 13.126099,8.684021 11.000916,8.723755 C11.000916,8.723755 10.415588,8.723755 10.415588,8.723755 C9.772034,8.723755 9.250061,9.246643 9.250061,9.891602 C9.250061,9.891602 9.250061,18.417114 9.250061,18.417114 C9.250061,19.062317 9.772034,19.584473 10.415588,19.584473 C10.415588,19.584473 11.000916,19.584473 11.000916,19.584473 C11.16571,19.591614 11.341492,19.592407 11.527954,19.591858 C11.527954,19.591858 9.065002,22.729004 9.065002,22.729004 C8.71759,23.171448 8.793884,23.812683 9.235596,24.16095 C9.422241,24.307861 9.644043,24.379333 9.864258,24.379333 C10.165527,24.379333 10.463867,24.24591 10.664673,23.98999 C10.664673,23.98999 21.616333,10.040344 21.616333,10.040344 C21.616638,10.040039 21.616821,10.039551 21.617188,10.039001 Z"/>
</svg>