<svg xmlns="http://www.w3.org/2000/svg"
 xmlns:xlink="http://www.w3.org/1999/xlink"
 width="31px" height="29px"  viewBox="0 0 31 29">
<path fill-rule="evenodd"  fill="#404040"
 d="M24.736542,2.439087 C23.462555,1.2269287 21.149231,1.0001221 19.148804,1.0001221 C18.439148,1.0001221 17.763062,1.02771 17.187561,1.0499268 C16.779602,1.0721436 16.421936,1.088623 16.142578,1.088623 C14.287415,1.088623 12.655884,1.6533203 11.426514,2.732544 C11.426514,2.732544 11.091248,3.0202637 11.091248,3.0202637 C11.091248,3.0202637 9.286407,3.0202637 9.286407,3.0202637 C9.286407,3.0202637 9.286407,16.740234 9.286407,16.740234 C9.286407,16.740234 12.5720215,16.740234 12.5720215,16.740234 C13.521912,18.262451 14.756836,20.21045 15.572662,21.361694 C16.036407,22.014526 16.198456,23.475952 16.019745,25.374268 C15.941467,26.149048 16.371643,26.901733 17.08139,27.244751 C17.824493,27.599121 18.707367,27.449585 19.277283,26.868408 C20.545685,25.579102 22.311462,22.706543 20.473083,17.686523 C20.473083,17.686523 27.329224,17.686523 27.329224,17.686523 C28.748535,17.686523 29.899597,16.546509 29.899597,15.140625 C29.899597,13.978638 29.111755,12.993286 28.033295,12.69458 C28.329407,12.290405 28.502625,11.797974 28.502625,11.2664795 C28.502625,10.309082 27.938293,9.479126 27.122559,9.080566 C27.485687,8.65979 27.703613,8.111938 27.703613,7.508789 C27.703613,6.324341 26.843079,5.333496 25.70874,5.123291 C25.70874,5.123291 25.70874,4.79126 25.70874,4.79126 C25.70874,3.8392334 25.37915,3.0479736 24.736542,2.439087 ZM8.168884,17.133179 C8.168884,17.133179 8.168884,2.4003906 8.168884,2.4003906 C8.168884,2.0960693 7.9174194,1.8468018 7.6100464,1.8468018 C7.6100464,1.8468018 3.983612,1.8468018 3.983612,1.8468018 C3.6930847,1.8468018 3.4528503,2.0627441 3.4249573,2.3503418 C3.4249573,2.3503418 1.9665222,17.083374 1.9665222,17.083374 C1.949707,17.238525 2.000061,17.39331 2.1062622,17.509521 C2.2124329,17.625732 2.3632202,17.686523 2.5196838,17.686523 C2.5196838,17.686523 7.6100464,17.686523 7.6100464,17.686523 C7.9174194,17.686523 8.168884,17.443115 8.168884,17.133179 Z"/>
</svg>