<svg xmlns="http://www.w3.org/2000/svg"
 xmlns:xlink="http://www.w3.org/1999/xlink"
 width="86px" height="68px"  viewBox="0 0 86 68">
<path fill-rule="evenodd"  fill="#404040"
 d="M80.006836,38.812866 C80.255615,39.729004 79.70935,40.67224 78.786865,40.919434 C78.3031,41.049072 77.7865,40.963867 77.37073,40.686035 C77.37073,40.686035 70.359375,36.357788 70.359375,36.357788 C70.359375,36.357788 63.3479,40.686035 63.3479,40.686035 C62.53943,41.19153 61.47119,40.95044 60.96216,40.147217 C60.71045,39.75 60.6333,39.268066 60.748413,38.812866 C60.748413,38.812866 62.725464,30.84729 62.725464,30.84729 C62.725464,30.84729 56.418945,25.555176 56.418945,25.555176 C55.688354,24.943604 55.595337,23.859375 56.21118,23.133667 C56.511475,22.779907 56.94275,22.56128 57.40735,22.527466 C57.40735,22.527466 65.645386,21.936157 65.645386,21.936157 C65.645386,21.936157 68.75745,14.343872 68.75745,14.343872 C69.11218,13.46228 70.118774,13.033569 71.00598,13.385742 C71.44592,13.560425 71.794556,13.906616 71.97034,14.343872 C71.97034,14.343872 75.0824,21.936157 75.0824,21.936157 C75.0824,21.936157 83.32031,22.527466 83.32031,22.527466 C84.273315,22.596802 84.989136,23.420288 84.91931,24.366943 C84.885254,24.828491 84.66516,25.256958 84.30896,25.555176 C84.30896,25.555176 78.029785,30.84729 78.029785,30.84729 C78.029785,30.84729 80.006836,38.812866 80.006836,38.812866 ZM74.00232,54.91626 C74.00232,54.91626 54.203735,56.40747 54.203735,56.40747 C52.56079,56.50598 50.975952,55.786865 49.974976,54.489136 C49.974976,54.489136 43.787354,46.305176 43.787354,46.305176 C43.787354,46.305176 42.87195,66.85535 42.87195,66.85535 C42.87195,66.85535 10.652466,66.85535 10.652466,66.85535 C10.652466,66.85535 2.7073975,54.989014 2.7073975,54.989014 C1.9260254,53.7782 1.8258057,52.253418 2.4418945,50.951782 C2.4418945,50.951782 5.8743896,43.677612 5.8743896,43.677612 C5.8743896,43.677612 9.004761,37.048706 9.004761,37.048706 C10.18335,34.546753 11.950928,32.36377 14.158203,30.683716 C16.596558,28.85852 19.173218,27.222778 21.865112,25.79187 C21.865112,25.79187 26.057373,45.79602 26.057373,45.79602 C26.057373,45.79602 28.14441,32.50244 28.14441,32.50244 C28.14441,32.50244 26.725586,30.23816 26.725586,30.23816 C26.725586,30.23816 28.858276,27.682983 28.858276,27.682983 C28.858276,27.682983 23.366333,24.182251 23.366333,24.182251 C23.366333,24.182251 23.366333,21.98169 23.366333,21.98169 C22.843262,21.101807 22.48645,20.134033 22.31372,19.126465 C21.91101,19.126465 21.398438,18.535522 20.8125,16.535034 C20.034546,13.807129 20.858398,13.389038 21.56311,13.461792 C21.431885,13.094727 21.33081,12.717529 21.261108,12.334106 C21.261108,12.334106 21.261108,12.334106 21.261108,12.334106 C20.980347,11.137939 20.980347,9.893311 21.261108,8.697144 C21.61084,7.296631 22.34253,6.019409 23.375488,5.005249 C23.958374,4.3897705 24.616333,3.849121 25.334229,3.395752 C25.919678,2.984253 26.560669,2.6568604 27.23816,2.4228516 C27.23816,2.4228516 27.23816,2.4228516 27.23816,2.4228516 C27.762817,2.2530518 28.307373,2.1522217 28.858276,2.1228027 C30.368042,1.9581299 31.891357,2.2768555 33.206177,3.0321045 C34.076538,3.480957 34.807495,4.1568604 35.320557,4.9870605 C35.320557,4.9870605 38.83545,5.232666 37.645508,12.325073 C37.575684,12.708618 37.47473,13.085449 37.343506,13.452515 C38.048218,13.389038 38.87195,13.7890625 38.093994,16.526123 C37.52649,18.52649 36.995605,19.09021 36.592896,19.117432 C36.420288,20.113647 36.063354,21.069458 35.540283,21.936157 C35.540283,21.936157 35.540283,24.16394 35.540283,24.16394 C35.540283,24.16394 30.048218,27.664917 30.048218,27.664917 C30.048218,27.664917 32.135254,30.30188 32.135254,30.30188 C32.135254,30.30188 30.688965,32.58423 30.688965,32.58423 C30.688965,32.58423 32.776,45.87805 32.776,45.87805 C32.776,45.87805 36.977295,25.873535 36.977295,25.873535 C39.741455,27.321411 42.385864,28.984741 44.885742,30.84729 C45.600464,31.401001 46.27063,32.009155 46.89026,32.666016 C47.980835,33.81189 48.90515,35.103394 49.63623,36.50305 C49.63623,36.50305 56.04358,48.696777 56.04358,48.696777 C56.04358,48.696777 73.97485,50.133545 73.97485,50.133545 C75.31201,50.215088 76.32922,51.358032 76.24695,52.686646 C76.17175,53.900757 75.19714,54.868896 73.97485,54.94348 C73.97485,54.94348 74.00232,54.91626 74.00232,54.91626 ZM16.730225,63.28186 C16.730225,63.28186 15.7508545,45.39612 15.7508545,45.39612 C15.7508545,45.39612 11.073486,52.32483 11.073486,52.32483 C10.794678,52.776855 10.794678,53.34607 11.073486,53.79785 C11.073486,53.79785 16.730225,63.28186 16.730225,63.28186 Z"/>
</svg>