<svg xmlns="http://www.w3.org/2000/svg"
 xmlns:xlink="http://www.w3.org/1999/xlink"
 width="66px" height="63px"  viewBox="0 0 66 63">
<path fill-rule="evenodd"  fill="#404040"
 d="M32.98329,36.242554 C42.48398,36.242554 50.185913,28.51648 50.185913,18.98584 C50.185913,9.4552 42.48398,1.7288818 32.98329,1.7288818 C23.482513,1.7288818 15.780594,9.4552 15.780594,18.98584 C15.780594,18.98584 15.780594,18.98584 15.780594,18.98584 C15.780594,28.51648 23.482513,36.242554 32.98329,36.242554 ZM26.962357,25.19812 C27.11522,24.629395 27.255386,24.118164 27.414688,23.61316 C27.50386,23.319214 27.695007,22.724731 28.306717,22.724731 C28.55246,22.739014 28.790894,22.81372 29.001175,22.942017 C29.886948,23.395874 30.847733,23.683838 31.836426,23.792114 C32.419464,23.873291 33.013596,23.79602 33.55664,23.568481 C34.10742,23.384033 34.404907,22.786743 34.221146,22.23413 C34.146896,22.01123 34.000473,21.819458 33.805115,21.689453 C33.498016,21.44812 33.159332,21.250122 32.798492,21.10144 C32.48633,20.960693 32.161377,20.832764 31.85556,20.711304 C31.105743,20.430786 30.379272,20.090698 29.682922,19.695068 C27.771484,18.53833 26.879532,17.036499 26.994202,15.093506 C27.134354,12.824463 28.36406,11.258545 30.651352,10.421143 C31.161026,10.235962 31.161026,10.235962 31.161026,9.724609 C31.161026,9.724609 31.161026,9.417847 31.161026,9.417847 C31.161026,9.226074 31.161026,9.034424 31.161026,8.842529 C31.161026,7.9414062 31.498764,7.621704 32.390717,7.5963135 C32.390717,7.5963135 33.168,7.5963135 33.168,7.5963135 C34.703506,7.5963135 34.85002,7.922119 34.85646,9.443359 C34.85646,10.005981 34.85646,10.005981 35.417114,10.082397 C36.19052,10.207642 36.944458,10.43335 37.659866,10.75354 C38.21913,10.96582 38.503494,11.590332 38.29698,12.15332 C38.29698,12.15332 38.15039,12.658203 38.15039,12.658203 C38.029358,13.086426 37.90834,13.52124 37.768097,13.936401 C37.702866,14.265869 37.498245,14.550415 37.207443,14.716309 C36.874344,14.823242 36.511276,14.779053 36.21353,14.594849 C35.24063,14.115356 34.161057,13.895386 33.078827,13.955811 C32.827682,13.9592285 32.579285,14.008911 32.346085,14.102661 C32.045334,14.209351 31.822693,14.466553 31.759949,14.780151 C31.73935,15.088501 31.882263,15.384888 32.13588,15.560059 C32.54599,15.8741455 32.998657,16.12793 33.480255,16.314331 C33.480255,16.314331 33.798767,16.448486 33.798767,16.448486 C34.620087,16.77002 35.42209,17.13916 36.200745,17.5542 C37.640976,18.332764 38.65953,19.715454 38.978653,21.325073 C39.26378,22.837036 38.862,24.397583 37.882843,25.581665 C37.136215,26.49414 36.12178,27.147217 34.983826,27.44812 C34.70987,27.524658 34.678024,27.588623 34.69081,27.812256 C34.703506,28.035889 34.69081,28.451416 34.69081,28.751831 C34.69081,28.751831 34.69081,28.8479 34.69081,28.8479 C34.69081,28.982056 34.69081,29.11621 34.69081,29.250366 C34.750717,29.829712 34.33127,30.348145 33.753708,30.408203 C33.70941,30.412964 33.664963,30.41455 33.620407,30.413696 C33.620407,30.413696 32.792145,30.413696 32.792145,30.413696 C32.792145,30.413696 32.091248,30.413696 32.091248,30.413696 C31.493622,30.440186 30.987732,29.975464 30.96138,29.376099 C30.959412,29.332153 30.960175,29.287964 30.963531,29.244019 C30.963531,29.244019 30.963531,28.208496 30.963531,28.208496 C30.963531,28.131958 30.963531,27.933716 30.963531,27.831665 C30.963531,27.831665 30.619507,27.773926 30.619507,27.773926 C29.639679,27.641357 28.68454,27.365845 27.784271,26.955933 C27.784271,26.955933 27.784271,26.955933 27.784271,26.955933 C26.88588,26.534058 26.70752,26.13794 26.962357,25.19812 ZM64.20282,38.709595 C64.35614,40.977295 63.524414,43.20056 61.921875,44.807007 C61.921875,44.807007 50.874023,55.877075 50.874023,55.877075 C50.874023,55.877075 50.874023,61.265015 50.874023,61.265015 C50.874023,61.265015 35.468094,61.265015 35.468094,61.265015 C35.468094,61.265015 35.53177,51.58191 35.53177,51.58191 C35.562683,46.287354 38.724243,41.516357 43.578827,39.438354 C43.578827,39.438354 49.548798,33.436768 49.548798,33.436768 C50.956238,32.377686 52.953003,32.664062 54.008728,34.075928 C54.858185,35.21228 54.858185,36.774536 54.008728,37.91089 C54.008728,37.91089 49.37033,42.5636 49.37033,42.5636 C48.938095,42.952637 48.901962,43.619263 49.28949,44.05298 C49.677094,44.48645 50.341766,44.522705 50.774017,44.134033 C50.80243,44.108276 50.829376,44.0813 50.85486,44.05298 C50.85486,44.05298 56.111237,38.779907 56.111237,38.779907 C56.865936,38.02307 57.2623,36.979004 57.200775,35.910156 C57.200775,35.910156 56.39154,23.766724 56.39154,23.766724 C56.27722,21.943481 57.657898,20.372314 59.47528,20.25769 C61.292816,20.142944 62.858795,21.528076 62.973145,23.351196 C62.973145,23.351196 62.973145,23.351196 62.973145,23.351196 C62.973145,23.351196 64.20282,38.709595 64.20282,38.709595 ZM15.143463,55.877075 C15.143463,55.877075 4.063751,44.807007 4.063751,44.807007 C2.4541779,43.203735 1.6153564,40.980225 1.7636719,38.709595 C1.7636719,38.709595 2.923233,23.37024 2.923233,23.37024 C3.0376587,21.54712 4.6036377,20.162231 6.421097,20.276855 C8.238647,20.391602 9.619232,21.962646 9.504822,23.785767 C9.504822,23.785767 8.695694,35.929443 8.695694,35.929443 C8.634064,36.99817 9.030518,38.04236 9.785233,38.799316 C9.785233,38.799316 15.041595,44.07202 15.041595,44.07202 C15.429199,44.505493 16.093872,44.542114 16.526123,44.15332 C16.958267,43.764282 16.994492,43.097656 16.606964,42.66394 C16.581482,42.63562 16.55452,42.60852 16.526123,42.582886 C16.526123,42.582886 11.887741,37.92993 11.887741,37.92993 C10.832108,36.518066 11.117401,34.514893 12.524857,33.45581 C13.657562,32.603638 15.214966,32.603638 16.347672,33.45581 C16.347672,33.45581 22.330322,39.457397 22.330322,39.457397 C27.201141,41.51538 30.386398,46.280518 30.434723,51.58191 C30.434723,51.58191 30.504852,61.265015 30.504852,61.265015 C30.504852,61.265015 15.0924835,61.265015 15.0924835,61.265015 C15.0924835,61.265015 15.143463,55.877075 15.143463,55.877075 Z"/>
</svg>