<svg xmlns="http://www.w3.org/2000/svg"
 xmlns:xlink="http://www.w3.org/1999/xlink"
 width="70px" height="61px"  viewBox="0 0 70 61">
<path fill-rule="evenodd"  fill="#404040"
 d="M66.41205,59.99524 C66.41205,59.99524 4.23407,59.99524 4.23407,59.99524 C3.005066,59.99524 2.0077515,59.003418 2.0040283,57.7771 C2.0040283,57.7771 2.0040283,54.575073 2.0040283,54.575073 C1.999939,53.417847 2.5165405,52.319824 3.411377,51.58362 C6.793579,48.846558 10.461304,46.481445 14.351196,44.528442 C14.4021,44.50244 14.433777,44.44983 14.432739,44.39258 C14.432739,44.39258 14.432739,40.804077 14.432739,40.804077 C13.935181,39.965454 13.58551,39.047607 13.399353,38.0907 C12.841797,37.93457 12.338623,37.039185 11.869507,35.377197 C11.454773,33.857666 11.447998,32.874023 11.869507,32.37195 C12.040405,32.170288 12.285461,32.04541 12.549438,32.026 C12.453125,31.725952 12.375977,31.420044 12.318237,31.110107 C11.808289,28.050537 12.073486,25.839233 13.106934,24.53003 C13.501587,23.998901 14.077087,23.629639 14.725159,23.492065 C15.261353,22.665894 16.00122,21.990723 16.873657,21.531616 C18.228027,20.74768 19.797607,20.41504 21.35431,20.581787 C21.965393,20.611084 22.569641,20.72522 23.149292,20.92102 C23.85144,21.165283 24.51538,21.508057 25.120972,21.938599 C25.848083,22.412598 26.512817,22.975464 27.099548,23.614014 C28.166077,24.659424 28.92157,25.978882 29.282043,27.426514 C29.564636,28.645264 29.564636,29.91211 29.282043,31.130493 C29.282043,31.130493 29.282043,31.130493 29.282043,31.130493 C29.224121,31.440186 29.14685,31.746094 29.050903,32.046387 C29.314941,32.065796 29.559998,32.190674 29.730774,32.392334 C30.165955,32.901 30.15918,33.87805 29.730774,35.39734 C29.254822,37.039185 28.758484,37.93457 28.200989,38.111084 C28.019043,39.090454 27.669495,40.03125 27.167542,40.892456 C27.167542,40.892456 27.167542,44.4469 27.167542,44.4469 C27.166504,44.50403 27.19806,44.556763 27.249146,44.58264 C30.057678,45.984497 32.755615,47.596924 35.31964,49.40576 C37.873535,47.58191 40.56244,45.95349 43.363037,44.53528 C43.414,44.5094 43.44568,44.456665 43.44464,44.399536 C43.44464,44.399536 43.44464,40.810913 43.44464,40.810913 C42.94696,39.972046 42.597412,39.0542 42.411133,38.097534 C41.853577,37.941406 41.350464,37.0459 40.88141,35.38391 C40.466553,33.864258 40.459778,32.880615 40.88141,32.378784 C41.052185,32.17688 41.29724,32.052246 41.56128,32.032715 C41.465027,31.732544 41.387817,31.426636 41.33008,31.116943 C40.82019,28.057495 41.085327,25.84607 42.118835,24.536621 C42.514038,24.02246 43.080994,23.66626 43.716553,23.532837 C44.252808,22.706543 44.992676,22.031494 45.865173,21.572388 C47.219482,20.788452 48.78894,20.45581 50.345764,20.622559 C50.95691,20.651855 51.561035,20.765991 52.140625,20.961792 C52.836975,21.20105 53.496155,21.536621 54.098816,21.958984 C54.84619,22.422363 55.531677,22.978394 56.13855,23.614014 C57.2052,24.659424 57.96057,25.978882 58.321045,27.426514 C58.603638,28.645264 58.603638,29.91211 58.321045,31.130493 C58.321045,31.130493 58.321045,31.130493 58.321045,31.130493 C58.263123,31.440186 58.185913,31.746094 58.089905,32.046387 C58.353943,32.065796 58.599,32.190674 58.769897,32.392334 C59.204956,32.901 59.19818,33.87805 58.769897,35.39734 C58.293884,37.039185 57.797607,37.93457 57.24005,38.111084 C57.058044,39.090454 56.708557,40.03125 56.206543,40.892456 C56.206543,40.892456 56.206543,44.440308 56.206543,44.440308 C56.205505,44.497192 56.237183,44.55005 56.288147,44.575806 C60.176025,46.513794 63.84369,48.863037 67.22797,51.58362 C68.12286,52.319824 68.639465,53.417847 68.635315,54.575073 C68.635315,54.575073 68.635315,57.7771 68.635315,57.7771 C68.63165,59.000732 67.63843,59.991577 66.41205,59.99524 ZM48.917908,17.115234 C48.917908,17.115234 37.461365,17.115234 37.461365,17.115234 C37.461365,17.115234 37.461365,20.208618 37.461365,20.208618 C37.467834,20.721191 37.265503,21.214233 36.90088,21.575562 C36.15735,22.311768 34.956238,22.307251 34.2182,21.56543 C34.2182,21.56543 29.757996,17.115234 29.757996,17.115234 C29.757996,17.115234 21.721375,17.115234 21.721375,17.115234 C21.719177,17.115234 21.716858,17.115234 21.7146,17.115234 C19.037292,17.11145 16.869934,14.942993 16.873657,12.271606 C16.873657,12.271606 16.873657,6.3359375 16.873657,6.3359375 C16.881165,3.6699219 19.049377,1.5128174 21.721375,1.5128174 C21.721375,1.5128174 48.917908,1.5128174 48.917908,1.5128174 C51.589966,1.5128174 53.75824,3.6699219 53.765686,6.3359375 C53.765686,6.3359375 53.765686,12.285156 53.765686,12.285156 C53.7619,14.953857 51.59265,17.115234 48.917908,17.115234 ZM28.411743,9.293579 C28.411743,9.291504 28.411743,9.2890625 28.411743,9.286743 C28.40802,8.2265625 27.54358,7.370117 26.480774,7.3739014 C25.423462,7.3775635 24.5672,8.231812 24.563416,9.286743 C24.559753,10.347168 25.418152,11.209595 26.480774,11.213379 C27.54358,11.217041 28.40802,10.360718 28.411743,9.300537 C28.411743,9.300537 28.411743,9.293579 28.411743,9.293579 ZM34.299805,9.293579 C34.29602,8.236084 33.43573,7.380493 32.37567,7.380493 C32.37567,7.380493 32.37567,7.380493 32.37567,7.380493 C31.312988,7.380493 30.451477,8.240112 30.451477,9.300537 C30.451477,10.360718 31.312988,11.220215 32.37567,11.220215 C33.438293,11.220215 34.299805,10.360718 34.299805,9.300537 C34.299805,9.300537 34.299805,9.293579 34.299805,9.293579 ZM40.187866,9.293579 C40.184082,8.236084 39.32373,7.380493 38.263733,7.380493 C37.20099,7.380493 36.3396,8.240112 36.3396,9.300537 C36.3396,10.360718 37.20099,11.220215 38.263733,11.220215 C39.326416,11.220215 40.187866,10.360718 40.187866,9.300537 C40.187866,9.300537 40.187866,9.293579 40.187866,9.293579 ZM46.075867,9.293579 C46.075867,8.236084 45.218567,7.3775635 44.15851,7.3739014 C43.095886,7.370117 42.231445,8.2265625 42.22754,9.286743 C42.223877,10.347168 43.082275,11.209595 44.144897,11.213379 C45.20758,11.217041 46.072144,10.360718 46.075867,9.300537 C46.075867,9.300537 46.075867,9.293579 46.075867,9.293579 Z"/>
</svg>