<svg xmlns="http://www.w3.org/2000/svg"
 xmlns:xlink="http://www.w3.org/1999/xlink"
 width="46px" height="29px"  viewBox="0 0 46 29">
<path fill-rule="evenodd"  fill="#404040"
 d="M25.828857,13.904175 C34.134766,15.532532 35.189636,27.999939 27.07257,27.999939 C27.07257,27.999939 18.809021,27.999939 18.809021,27.999939 C10.691284,27.999939 11.746826,15.532532 20.052734,13.904175 C20.052734,13.904175 21.309631,21.916016 21.309631,21.916016 C21.309631,21.916016 21.88733,21.60608 21.88733,21.60608 C21.88733,21.60608 22.435303,18.07312 22.435303,18.07312 C22.158936,17.999512 21.954712,17.74707 21.954712,17.448792 C21.954712,17.448792 21.954712,16.126343 21.954712,16.126343 C21.954712,16.126343 23.926147,16.126343 23.926147,16.126343 C23.926147,16.126343 23.926147,17.448792 23.926147,17.448792 C23.926147,17.750488 23.717896,18.005066 23.437256,18.075745 C23.437256,18.075745 23.910889,21.60608 23.910889,21.60608 C23.910889,21.60608 24.57129,21.916016 24.57129,21.916016 C24.57129,21.916016 25.828857,13.904175 25.828857,13.904175 C25.828857,13.904175 25.828857,13.904175 25.828857,13.904175 ZM34.668823,16.213684 C42.894226,16.213684 44.39209,27.999939 37.220154,27.999939 C37.220154,27.999939 31.284302,27.999939 31.284302,27.999939 C34.962524,25.263733 34.396667,19.623901 31.886963,16.28302 C32.7807,16.164978 33.763977,16.213684 34.668823,16.213684 C34.668823,16.213684 34.668823,16.213684 34.668823,16.213684 ZM33.8078,5.9282837 C36.17157,5.9282837 38.088135,7.348633 38.088135,9.887085 C38.088135,12.425598 36.17157,15.119934 33.8078,15.119934 C31.44403,15.119934 29.528076,12.425598 29.528076,9.887085 C29.528076,7.348633 31.44403,5.9282837 33.8078,5.9282837 ZM11.212769,16.213684 C12.117615,16.213684 13.100891,16.164978 13.994629,16.28302 C11.492676,19.613342 10.921143,25.26587 14.597412,27.999939 C14.597412,27.999939 8.661438,27.999939 8.661438,27.999939 C1.489502,27.999939 2.9866943,16.213684 11.212769,16.213684 C11.212769,16.213684 11.212769,16.213684 11.212769,16.213684 ZM12.07312,5.9282837 C14.437012,5.9282837 16.353577,7.348633 16.353577,9.887085 C16.353577,12.425598 14.437012,15.119934 12.07312,15.119934 C9.709351,15.119934 7.793457,12.425598 7.793457,9.887085 C7.793457,7.348633 9.709351,5.9282837 12.07312,5.9282837 ZM22.940857,1.2723999 C25.803223,1.2723999 28.12323,2.9923096 28.12323,6.066162 C28.12323,9.140015 25.803223,12.40387 22.940857,12.40387 C20.07837,12.40387 17.758362,9.140015 17.758362,6.066162 C17.758362,2.9923096 20.07837,1.2723999 22.940857,1.2723999 Z"/>
</svg>