<svg xmlns="http://www.w3.org/2000/svg"
 xmlns:xlink="http://www.w3.org/1999/xlink"
 width="34px" height="30px"  viewBox="0 0 34 30">
<path fill-rule="evenodd"  fill="#404040"
 d="M3.381958,24.407104 C3.479248,24.439331 3.576538,24.439331 3.6738281,24.439331 C4.2575684,24.439331 4.7764893,24.050903 4.906189,23.467896 C4.906189,23.467896 6.1709595,17.963257 6.1709595,17.963257 C6.1709595,17.963257 3.8035889,17.218506 3.8035889,17.218506 C3.7711182,17.218506 3.7711182,17.186035 3.7387085,17.186035 C3.7387085,17.186035 2.4414673,22.885132 2.4414673,22.885132 C2.2792969,23.565063 2.7009277,24.245117 3.381958,24.407104 ZM4.2575684,15.890869 C4.2575684,15.890869 7.760132,16.991821 7.760132,16.991821 C7.760132,16.991821 7.825012,20.618408 7.825012,20.618408 C7.825012,21.298584 8.408752,21.881348 9.089844,21.881348 C9.089844,21.881348 9.089844,21.881348 9.122253,21.881348 C9.835693,21.881348 10.387085,21.298584 10.387085,20.586182 C10.387085,20.586182 10.322144,16.052856 10.322144,16.052856 C10.322144,15.502319 9.965454,15.016724 9.446533,14.854736 C9.446533,14.854736 7.2088623,14.142334 7.2088623,14.142334 C7.2088623,14.142334 8.019592,10.612793 8.019592,10.612793 C8.019592,10.612793 11.100464,10.354004 11.100464,10.354004 C11.295044,10.321411 11.489624,10.256592 11.651855,10.127197 C11.651855,10.127197 13.857117,8.443481 13.857117,8.443481 C14.311157,8.08728 14.408508,7.4071045 14.051697,6.9537354 C13.694946,6.5004883 13.013916,6.4033203 12.5598755,6.7595215 C12.5598755,6.7595215 10.614075,8.248901 10.614075,8.248901 C10.614075,8.248901 7.857483,8.508057 7.857483,8.508057 C7.857483,8.508057 5.6845703,8.022461 5.6845703,8.022461 C5.29541,7.925293 4.8738403,8.022461 4.517029,8.248901 C4.192749,8.475708 3.9656982,8.864258 3.9332886,9.285278 C3.9332886,9.285278 3.381958,14.498535 3.381958,14.498535 C3.284668,15.113892 3.6738281,15.696533 4.2575684,15.890869 ZM31.531982,13.656738 C31.240112,13.462402 30.850891,13.429932 30.526611,13.591919 C30.526611,13.591919 1.8252563,26.932617 1.8252563,26.932617 C1.3712158,27.126831 1.1442261,27.64502 1.2415161,28.130615 C1.3388062,28.616577 1.7928467,28.972778 2.2792969,28.972778 C2.2792969,28.972778 30.980652,28.972778 30.980652,28.972778 C31.564392,28.972778 32.050903,28.486816 32.050903,27.904175 C32.050903,27.904175 32.050903,14.530884 32.050903,14.530884 C32.018433,14.174561 31.823853,13.850952 31.531982,13.656738 ZM7.2736206,3.1654053 C8.5095215,3.1654053 9.511414,4.1657715 9.511414,5.399536 C9.511414,6.633545 8.5095215,7.633911 7.2736206,7.633911 C6.037781,7.633911 5.0359497,6.633545 5.0359497,5.399536 C5.0359497,4.1657715 6.037781,3.1654053 7.2736206,3.1654053 ZM21.997314,1.6434326 C25.704895,1.6434326 28.71045,4.6445312 28.71045,8.346313 C28.71045,12.048218 25.704895,15.04895 21.997314,15.04895 C18.289673,15.04895 15.284119,12.048218 15.284119,8.346313 C15.284119,4.6445312 18.289673,1.6434326 21.997314,1.6434326 Z"/>
</svg>