<svg xmlns="http://www.w3.org/2000/svg"
 xmlns:xlink="http://www.w3.org/1999/xlink"
 width="30px" height="30px"  viewBox="0 0 30 30">
<path fill-rule="evenodd"  fill="#258b83"
 d="M15.4891205,1.8916016 C8.055405,1.8916016 1.9969635,7.913086 1.9969635,15.383789 C1.9969635,22.85498 8.0182495,28.875977 15.4891205,28.875977 C22.959991,28.875977 28.981277,22.85498 28.981277,15.383789 C28.981277,7.913086 22.922745,1.8916016 15.4891205,1.8916016 ZM22.84842,16.090332 C22.84842,16.090332 12.366943,22.148438 12.366943,22.148438 C11.846634,22.4458 11.177582,22.074219 11.177582,21.442383 C11.177582,21.442383 11.177582,9.325684 11.177582,9.325684 C11.177582,8.730957 11.846634,8.322266 12.366943,8.619141 C12.366943,8.619141 22.84842,14.677734 22.84842,14.677734 C23.405975,15.012207 23.405975,15.755859 22.84842,16.090332 Z"/>
</svg>