<svg xmlns="http://www.w3.org/2000/svg"
 xmlns:xlink="http://www.w3.org/1999/xlink"
 width="32px" height="32px"  viewBox="0 0 32 32">
<path fill-rule="evenodd"  fill="#258b83"
 d="M16.483337,1.0673828 C18.349854,1.0673828 19.862854,2.5805664 19.862854,4.4472656 C19.862854,6.3134766 18.349854,7.826172 16.483337,7.826172 C14.616943,7.826172 13.103943,6.3134766 13.103943,4.4472656 C13.103943,2.5805664 14.616943,1.0673828 16.483337,1.0673828 ZM24.24646,18.447754 C24.24646,18.447754 30.966797,18.447754 30.966797,18.447754 C30.966797,18.447754 30.966797,14.585449 30.966797,14.585449 C30.966797,14.585449 26.100342,14.585449 26.100342,14.585449 C26.100342,14.585449 23.015442,10.723145 23.015442,10.723145 C22.125122,9.608398 20.499817,9.426758 19.385315,10.316895 C18.770325,10.808105 18.412903,11.553223 18.41449,12.340332 C18.41449,12.340332 18.41449,21.827148 18.41449,21.827148 C17.685608,22.317383 17.034546,22.91455 16.483337,23.598633 C15.932129,22.91455 15.281189,22.317383 14.552246,21.827148 C14.552246,21.827148 14.552246,12.340332 14.552246,12.340332 C14.555176,10.9140625 13.401123,9.755371 11.974609,9.752441 C11.1875,9.750977 10.442627,10.10791 9.951416,10.723145 C9.951416,10.723145 6.866394,14.585449 6.866394,14.585449 C6.866394,14.585449 1.999939,14.585449 1.999939,14.585449 C1.999939,14.585449 1.999939,18.447754 1.999939,18.447754 C1.999939,18.447754 8.720215,18.447754 8.720215,18.447754 C8.720215,18.447754 10.690063,15.985352 10.690063,15.985352 C10.690063,15.985352 10.690063,20.43164 10.690063,20.43164 C10.369385,20.396484 10.047119,20.378418 9.724426,20.378418 C9.724426,20.378418 9.241638,20.378418 9.241638,20.378418 C6.308716,20.378418 3.9310303,22.756348 3.9310303,25.689453 C3.9310303,28.622559 6.308716,31.0 9.241638,31.0 C9.241638,31.0 23.725098,31.0 23.725098,31.0 C26.658081,31.0 29.035645,28.622559 29.035645,25.689453 C29.035645,22.756348 26.658081,20.378418 23.725098,20.378418 C23.725098,20.378418 23.24237,20.378418 23.24237,20.378418 C22.919617,20.380371 22.597229,20.399414 22.276733,20.436523 C22.276733,20.436523 22.276733,15.985352 22.276733,15.985352 C22.276733,15.985352 24.24646,18.447754 24.24646,18.447754 ZM9.241638,27.137695 C8.441711,27.137695 7.793335,26.489258 7.793335,25.689453 C7.793335,24.88916 8.441711,24.240723 9.241638,24.240723 C9.241638,24.240723 9.724426,24.240723 9.724426,24.240723 C11.644897,24.240234 13.383301,25.377441 14.151489,27.137695 C14.151489,27.137695 9.241638,27.137695 9.241638,27.137695 ZM23.725098,24.240723 C24.525024,24.240723 25.173462,24.88916 25.173462,25.689453 C25.173462,26.489258 24.525024,27.137695 23.725098,27.137695 C23.725098,27.137695 18.815186,27.137695 18.815186,27.137695 C19.583374,25.377441 21.321777,24.240234 23.24237,24.240723 C23.24237,24.240723 23.725098,24.240723 23.725098,24.240723 Z"/>
</svg>